<?xml version="1.0" standalone="no"?>
<!DOCTYPE svg PUBLIC "-//W3C//DTD SVG 20010904//EN"
 "http://www.w3.org/TR/2001/REC-SVG-20010904/DTD/svg10.dtd">
<svg version="1.0" xmlns="http://www.w3.org/2000/svg"
 width="350.000000pt" height="350.000000pt" viewBox="0 0 350.000000 350.000000"
 preserveAspectRatio="xMidYMid meet">

<g transform="translate(0.000000,350.000000) scale(0.100000,-0.100000)"
fill="#000000" stroke="none">
<path d="M1602 2900 c-76 -14 -169 -47 -232 -83 -54 -31 -168 -136 -206 -190
-18 -25 -26 -28 -119 -37 -120 -11 -187 -30 -279 -78 -233 -122 -354 -375
-302 -632 25 -124 66 -202 150 -286 71 -71 134 -111 214 -134 23 -8 46 -18 51
-24 5 -6 14 -164 20 -351 14 -436 17 -461 44 -480 19 -13 125 -15 809 -15 752
0 789 1 806 18 23 23 29 100 38 487 4 149 9 287 13 308 6 37 9 39 71 60 134
45 246 144 305 270 114 238 73 488 -108 672 -112 113 -229 165 -420 185 -92
10 -104 13 -122 37 -90 119 -237 221 -370 258 -72 19 -287 28 -363 15z m349
-154 c120 -42 213 -116 295 -238 l32 -46 123 -4 c144 -6 203 -24 311 -95 80
-52 118 -95 160 -182 27 -53 33 -78 36 -153 11 -234 -124 -418 -338 -458 -95
-18 -89 4 -105 -416 -8 -203 -15 -381 -15 -396 l0 -28 -699 0 -699 0 -6 63
c-3 34 -10 210 -16 391 -6 182 -16 338 -21 348 -5 9 -28 22 -52 28 -173 44
-267 114 -330 248 -30 64 -32 73 -32 187 0 115 1 123 32 188 59 124 187 224
338 262 33 8 102 15 156 15 104 0 110 3 142 66 47 92 180 193 297 224 133 36
280 35 391 -4z"/>
</g>
</svg>
